<svg id="Layer_1" data-name="Layer 1" xmlns="http://www.w3.org/2000/svg" width="72" height="72" viewBox="0 0 72 72"><defs><style>.cls-1{fill:#fff;}.cls-2{fill:none;}</style></defs><title>icon-sprite</title><path class="cls-1" d="M15.5,14h-.79l-.28-.27a6.51,6.51,0,1,0-.7.7l.27.28v.79l5,5L20.49,19Zm-6,0A4.5,4.5,0,1,1,14,9.5,4.49,4.49,0,0,1,9.5,14Z"/><path class="cls-2" d="M0,0H24V24H0Z"/><path class="cls-1" d="M34,20V14h4v6h5V12h3L36,3,26,12h3v8Z"/><path class="cls-2" d="M24,0H48V24H24Z"/><path class="cls-1" d="M55,19H65V4H55Zm-5-2h4V6H50ZM66,6V17h4V6Z"/><path class="cls-2" d="M48,0H72V24H48Z"/><path class="cls-1" d="M3.24,30.15A2,2,0,0,0,2,32V44a2,2,0,0,0,2,2H20a2,2,0,0,0,2-2V32a2,2,0,0,0-2-2H8.3l8.26-3.34L15.88,25ZM7,44a3,3,0,1,1,3-3A3,3,0,0,1,7,44Zm13-8H18V34H16v2H4V32H20Z"/><path class="cls-2" d="M0,24H24V48H0Z"/><path class="cls-2" d="M24,24H48V48H24Z"/><path class="cls-1" d="M44,26H32a2,2,0,0,0-2,2V40a2,2,0,0,0,2,2H44a2,2,0,0,0,2-2V28A2,2,0,0,0,44,26Zm-2,5H39v5.5A2.5,2.5,0,1,1,36.5,34a2.45,2.45,0,0,1,1.5.51V29h4ZM28,30H26V44a2,2,0,0,0,2,2H42V44H28Z"/><path class="cls-2" d="M48,24H72V48H48Z"/><path class="cls-1" d="M60,41a2,2,0,1,0-2-2A2,2,0,0,0,60,41Zm6-9H65V30a5,5,0,0,0-10,0h1.9a3.1,3.1,0,0,1,6.2,0v2H54a2,2,0,0,0-2,2V44a2,2,0,0,0,2,2H66a2,2,0,0,0,2-2V34A2,2,0,0,0,66,32Zm0,12H54V34H66Z"/><path class="cls-1" d="M3,53V67a2,2,0,0,0,2,2H19a2,2,0,0,0,2-2V53a2,2,0,0,0-2-2H5A2,2,0,0,0,3,53Zm12,4a3,3,0,1,1-3-3A3,3,0,0,1,15,57ZM6,65c0-2,4-3.1,6-3.1S18,63,18,65v1H6Z"/><path class="cls-2" d="M0,48H24V72H0Z"/></svg>